{"title":"Brantley Gilbert- Just As I am - FLAC","uid":10200060,"size":616624174,"categoryP":"audio","categoryS":"flac","magnet":"?xt=urn:btih:18561f8965a09c2cd1a759132aa3eba0b8f1301c&amp;dn=Brantley+Gilbert-+Just+As+I+am+-+FLAC&amp;tr=udp%3A%2F%2Ftracker.openbittorrent.com%3A80&amp;tr=udp%3A%2F%2Fopen.demonii.com%3A1337&amp;tr=udp%3A%2F%2Ftracker.coppersurfer.tk%3A6969&amp;tr=udp%3A%2F%2Fexodus.desync.com%3A6969","seeders":5,"leechers":0,"uploader":"tri675SE","files":16,"time":1400759262,"description":"Purchased Album CD Rip into FLAC using XLD \n\n1. If you want a Bad Boy\n2. 17 Again\n3. Bottoms Up\n4. Thats Was Us \n5. I'm Gone\n6. My Baby's Guns N' Roses \n7. Lights Of My Home Town\n8. One Hell of An Amen\n9. Small Town Throwdown (Feat. Justin Moore &amp; Thomas Rhett)\n10. Let It Ride\n11. My Faith in You\n12. G.R.I.T.S (Girls Raised In The South) \n13. Read Me My Rights\n14. Grown Ass Man\n\n---------------------FLAC --------------------------------------------\nX Lossless Decoder version 20131102 (145.0)\n\nXLD extraction logfile from 2014-05-21 00:02:16 -0700\n\nBrantley Gilbert / Just As I Am (Deluxe)\n\nUsed drive : MATSHITA DVD-R UJ-8A8 (revision HB14)\nMedia type : Pressed CD\n\nRipper mode : XLD Secure Ripper\nDisable audio cache : OK for the drive with a cache less than 1375KiB\nMake use of C2 pointers : NO\nRead offset correction : 102\nMax retry count : 20\nGap status : Analyzed, Appended\n\nTOC of the extracted CD\nTrack | Start | Length | Start sector | End sector \n---------------------------------------------------------\n1 | 00:00:00 | 03:32:47 | 0 | 15946 \n2 | 03:32:47 | 03:59:58 | 15947 | 33929 \n3 | 07:32:30 | 03:41:17 | 33930 | 50521 \n4 | 11:13:47 | 03:47:36 | 50522 | 67582 \n5 | 15:01:08 | 03:34:08 | 67583 | 83640 \n6 | 18:35:16 | 03:33:67 | 83641 | 99682 \n7 | 22:09:08 | 06:10:25 | 99683 | 127457 \n8 | 28:19:33 | 03:42:47 | 127458 | 144154 \n9 | 32:02:05 | 03:22:49 | 144155 | 159353 \n10 | 35:24:54 | 04:37:60 | 159354 | 180188 \n11 | 40:02:39 | 05:13:18 | 180189 | 203681 \n12 | 45:15:57 | 03:53:10 | 203682 | 221166 \n13 | 49:08:67 | 03:56:48 | 221167 | 238914 \n14 | 53:05:40 | 05:00:47 | 238915 | 261461 \n\nAccurateRip Summary\nDisc not found in AccurateRip DB.\n\nAll Tracks\nStatistics\nRead error : 0\nJitter error (maybe fixed) : 0\nRetry sector count : 0\nDamaged sector count : 0\n\t\t","torrent":{"xt":"urn:btih:18561f8965a09c2cd1a759132aa3eba0b8f1301c","amp;dn":"Brantley+Gilbert-+Just+As+I+am+-+FLAC","amp;tr":["udp%3A%2F%2Ftracker.openbittorrent.com%3A80","udp%3A%2F%2Fopen.demonii.com%3A1337","udp%3A%2F%2Ftracker.coppersurfer.tk%3A6969","udp%3A%2F%2Fexodus.desync.com%3A6969"],"infoHash":"18561f8965a09c2cd1a759132aa3eba0b8f1301c","infoHashBuffer":{"type":"Buffer","data":[24,86,31,137,101,160,156,44,209,167,89,19,42,163,235,160,184,241,48,28]},"announce":[],"urlList":[]}}